<svg xmlns="http://www.w3.org/2000/svg" width="120" height="120" viewBox="0 0 120 120" opacity="0.06">
  <g fill="none" stroke="#800000" stroke-width="1.2">
    <!-- Pucuak Rebuang (bamboo shoot) motif -->
    <path d="M60 10 Q65 25 60 40 Q55 25 60 10Z"/>
    <path d="M60 40 Q70 50 60 60 Q50 50 60 40Z"/>
    <path d="M60 60 Q65 75 60 90 Q55 75 60 60Z"/>
    <!-- Side curls -->
    <path d="M30 30 Q40 20 50 30 Q40 40 30 30Z"/>
    <path d="M70 30 Q80 20 90 30 Q80 40 70 30Z"/>
    <path d="M30 90 Q40 80 50 90 Q40 100 30 90Z"/>
    <path d="M70 90 Q80 80 90 90 Q80 100 70 90Z"/>
    <!-- Diamond accents -->
    <path d="M20 60 L30 50 L40 60 L30 70Z"/>
    <path d="M80 60 L90 50 L100 60 L90 70Z"/>
    <!-- Top/bottom ornaments -->
    <path d="M40 5 Q45 0 50 5 Q45 10 40 5Z"/>
    <path d="M70 5 Q75 0 80 5 Q75 10 70 5Z"/>
    <path d="M40 115 Q45 110 50 115 Q45 120 40 115Z"/>
    <path d="M70 115 Q75 110 80 115 Q75 120 70 115Z"/>
  </g>
</svg>
